<svg width="166" height="30" viewBox="0 0 166 30" fill="none" xmlns="http://www.w3.org/2000/svg">
<path d="M8.901 11.017C7.107 11.017 5.773 12.029 5.129 13.202V6.44H1.403V23H5.083V21.229C5.773 22.494 7.084 23.345 8.74 23.345C12.052 23.345 13.984 20.332 13.984 17.066C13.984 13.777 12.19 11.017 8.901 11.017ZM7.567 20.217C6.049 20.217 5.083 19.021 5.083 17.25C5.083 15.433 6.072 14.191 7.613 14.191C9.131 14.191 10.166 15.41 10.166 17.204C10.166 18.998 9.085 20.217 7.567 20.217ZM23.6584 17.457C23.6584 19.205 22.9914 20.263 21.6344 20.263C20.3234 20.263 19.7484 19.389 19.7484 17.825V11.362H16.0224V18.63C16.0224 21.505 17.4024 23.322 20.1854 23.322C21.8644 23.322 23.1524 22.425 23.7504 21.091V23H27.4074V11.362H23.6584V17.457ZM36.8674 11.155C35.5334 11.155 34.4754 11.914 33.9464 13.777V11.362H30.2204V23H33.9464V17.802C33.9464 15.709 34.9124 14.582 36.4994 14.582C37.2814 14.582 37.9024 14.766 38.3394 15.065V11.615C37.9714 11.362 37.4884 11.155 36.8674 11.155ZM44.3855 11.017C42.5915 11.017 41.0505 11.569 39.9465 12.282V15.387C40.8205 14.605 42.0625 14.076 43.5345 14.076C45.3745 14.076 46.4095 15.019 46.4095 16.767V17.112C45.8115 16.376 44.8225 15.916 43.4655 15.916C41.0505 15.916 39.3255 17.319 39.3255 19.642C39.3255 21.781 40.9125 23.345 43.1665 23.345C44.6155 23.345 45.7885 22.701 46.4095 21.643V23H50.0665V16.399C50.0665 13.11 48.0655 11.017 44.3855 11.017ZM44.5925 20.953C43.4425 20.953 42.7755 20.332 42.7755 19.412C42.7755 18.515 43.4655 17.894 44.6155 17.894C45.7425 17.894 46.4785 18.538 46.4785 19.389C46.4785 20.286 45.7425 20.953 44.5925 20.953ZM59.7878 16.56L64.3188 11.362H59.8798L56.4298 15.824V6.44H52.7038V23H56.4298V17.48L60.2248 23H64.5488L59.7878 16.56Z" fill="white"/>
<path d="M76.224 13.524L75.695 16.123H78.593V18.446H75.258L74.384 23H71.923L72.797 18.446H70.612L69.761 23H67.346L68.174 18.446H65.506V16.123H68.611L69.14 13.524H66.311V11.178H69.554L70.428 6.601H72.889L72.015 11.178H74.246L75.12 6.601H77.535L76.661 11.178H79.352V13.524H76.224ZM71.049 16.123H73.257L73.786 13.524H71.578L71.049 16.123ZM87.3901 23.414C91.4841 23.414 93.9221 20.217 93.9221 15.341C93.9221 10.58 91.4381 7.36 87.3901 7.36C83.3651 7.36 80.8581 10.557 80.8581 15.318C80.8581 20.217 83.3191 23.414 87.3901 23.414ZM87.3901 19.964C85.5731 19.964 84.7221 17.94 84.7221 15.364C84.7221 12.788 85.5501 10.81 87.3901 10.81C89.2761 10.81 90.0581 12.811 90.0581 15.364C90.0581 17.917 89.2531 19.964 87.3901 19.964ZM103.36 12.903C101.497 12.903 100.163 13.708 99.5415 14.858C99.6795 12.259 101.175 10.58 103.682 10.58C105.292 10.58 106.58 11.224 107.431 11.96V8.556C106.281 7.82 104.901 7.36 103.13 7.36C98.8975 7.36 95.8845 10.465 95.8845 15.824C95.8845 21.045 98.5065 23.414 102.141 23.414C105.821 23.414 108.213 20.976 108.213 17.802C108.213 14.881 106.212 12.903 103.36 12.903ZM102.141 20.332C100.738 20.332 99.7255 19.274 99.7255 17.871C99.7255 16.514 100.715 15.502 102.141 15.502C103.544 15.502 104.579 16.491 104.579 17.894C104.579 19.343 103.521 20.332 102.141 20.332ZM117.577 12.903C115.714 12.903 114.38 13.708 113.759 14.858C113.897 12.259 115.392 10.58 117.899 10.58C119.509 10.58 120.797 11.224 121.648 11.96V8.556C120.498 7.82 119.118 7.36 117.347 7.36C113.115 7.36 110.102 10.465 110.102 15.824C110.102 21.045 112.724 23.414 116.358 23.414C120.038 23.414 122.43 20.976 122.43 17.802C122.43 14.881 120.429 12.903 117.577 12.903ZM116.358 20.332C114.955 20.332 113.943 19.274 113.943 17.871C113.943 16.514 114.932 15.502 116.358 15.502C117.761 15.502 118.796 16.491 118.796 17.894C118.796 19.343 117.738 20.332 116.358 20.332ZM131.795 12.903C129.932 12.903 128.598 13.708 127.977 14.858C128.115 12.259 129.61 10.58 132.117 10.58C133.727 10.58 135.015 11.224 135.866 11.96V8.556C134.716 7.82 133.336 7.36 131.565 7.36C127.333 7.36 124.32 10.465 124.32 15.824C124.32 21.045 126.942 23.414 130.576 23.414C134.256 23.414 136.648 20.976 136.648 17.802C136.648 14.881 134.647 12.903 131.795 12.903ZM130.576 20.332C129.173 20.332 128.161 19.274 128.161 17.871C128.161 16.514 129.15 15.502 130.576 15.502C131.979 15.502 133.014 16.491 133.014 17.894C133.014 19.343 131.956 20.332 130.576 20.332Z" fill="#B9BBBE"/>
</svg>
